<svg xmlns="http://www.w3.org/2000/svg" xmlns:svg="http://www.w3.org/2000/svg" id="svg887" width="132.33" height="132.33" version="1.1" viewBox="0 0 35.012 35.012"><metadata id="metadata884"/><g id="layer1" transform="translate(4.7790527e-7,-261.98769)"><g id="g1474" transform="translate(-13.86587,255.01468)"><circle id="path839" cx="31.372" cy="24.479" r="17.506" style="fill:#444;stroke:none;stroke-width:.52916664;stroke-miterlimit:4;stroke-dasharray:none;stroke-opacity:1;fill-opacity:1"/><path id="path833" d="m 31.372025,15.279351 c 0.419434,0 2.345263,6.207998 2.684592,6.454535 0.33933,0.246537 6.8386,0.159733 6.968213,0.558639 0.129612,0.398906 -5.179431,4.148855 -5.309043,4.54776 -0.129612,0.398906 1.961328,6.553256 1.621999,6.799793 -0.339329,0.246537 -5.546327,-3.643865 -5.965761,-3.643865 -0.419435,0 -5.626433,3.890402 -5.965762,3.643865 -0.33933,-0.246538 1.751611,-6.400887 1.621999,-6.799793 -0.129612,-0.398905 -5.438655,-4.148855 -5.309043,-4.547761 0.129613,-0.398905 6.628883,-0.312101 6.968213,-0.558638 0.339329,-0.246537 2.265159,-6.454535 2.684593,-6.454535 z" style="fill:none;fill-opacity:1;stroke:#ecf0f1;stroke-width:1.60989249;stroke-miterlimit:4;stroke-dasharray:none;stroke-opacity:1"/></g></g></svg>